<svg id="Capa_1" enable-background="new 0 0 512 512" height="512" viewBox="0 0 512 512" width="512" xmlns="http://www.w3.org/2000/svg"><g><g><path clip-rule="evenodd" d="m256 108.797 81.072 128.579 81.072 128.552-162.144 9.326-162.115-9.326 81.044-128.552z" fill="#3291bc" fill-rule="evenodd"/><path d="m348.155 108.712h-34.81c-4.224 0-7.653-3.686-7.682-8.221-.681-6.52-3.458-8.985-7.738-13.209-4.367-4.309-10.178-6.945-16.556-6.945h-20.466c-4.224 0-7.654-3.713-7.654-8.277 0-7.312-2.777-13.918-7.227-18.736-4.451-4.819-10.602-7.796-17.349-7.796h-30.189c-6.747 0-12.87 2.977-17.349 7.796-4.45 4.818-7.199 11.424-7.199 18.736 0 4.564-3.459 8.277-7.683 8.277h-9.723c-6.378 0-12.218 2.637-16.554 6.945-4.423 4.365-7.541 7.086-8.079 13.833-.341 4.309-3.686 7.568-7.626 7.54l-5.103.057c-6.746 0-12.897 2.977-17.349 7.795-4.45 4.791-7.086 14.769-7.086 22.082 0 7.285 2.777 13.918 7.228 18.709 4.451 4.818 10.603 7.795 17.349 7.795h228.985c6.747 0 12.869-2.977 17.349-7.795 4.45-4.791 7.199-11.424 7.199-18.709 0-7.313-2.891-17.291-7.37-22.082-4.449-4.819-10.572-7.795-17.318-7.795z" fill="#ddf6ff"/><g clip-rule="evenodd" fill-rule="evenodd"><path d="m119.312 165.093h228.985c6.747 0 12.869-2.977 17.349-7.795 4.45-4.791 7.199-11.424 7.199-18.709 0-4.365-.992-8.504-2.749-12.16-1.162 2.466-2.665 4.677-4.45 6.604-4.48 4.819-10.602 7.795-17.349 7.795h-228.985c-6.746 0-12.897-2.976-17.349-7.795-1.785-1.928-3.316-4.139-4.479-6.604-1.757 3.656-2.749 7.795-2.749 12.16 0 7.285 2.777 13.918 7.228 18.709 4.451 4.818 10.602 7.795 17.349 7.795z" fill="#cfecf7"/><path d="m259.884 114.948c-2.665-4.224-4.876-4.564-7.768 0l-58.621 93.005 32.713-9.213c4.903-1.389 8.702.283 11.339 3.855l14.145 19.162c3.401 4.62 5.244 4.62 8.646 0l14.145-19.162c2.862-3.884 6.774-5.159 11.31-3.855l32.741 9.213z" fill="#89bad5"/><path d="m243.867 128.044 23.358 37.049 21.77 34.526 29.538 8.334-27.016-42.86-31.634-50.145c-2.665-4.224-4.876-4.564-7.768 0z" fill="#80b3cf"/><path d="m318.533 207.953-29.538-8.334 23.813 37.757 81.071 128.552h24.265l-81.072-128.552z" fill="#2b89b5"/><path d="m57.771 466.473h396.457c27.667 0 50.288-22.62 50.288-50.259 0-27.666-22.621-50.286-50.288-50.286h-396.457c-27.639 0-50.26 22.62-50.26 50.286.001 27.639 22.622 50.259 50.26 50.259z" fill="#b3e59f"/><path d="m57.771 466.473h396.457c27.667 0 50.288-22.62 50.288-50.259 0-20.068-11.934-37.474-29.027-45.523 3.033 6.463 4.763 13.662 4.763 21.26 0 27.637-22.621 50.258-50.288 50.258h-415.167c8.845 14.513 24.832 24.264 42.974 24.264z" fill="#95d6a4"/></g></g><path d="m355.214 280.151c-2.211-3.486-1.162-8.107 2.353-10.318 3.486-2.183 8.107-1.134 10.29 2.353l54.397 86.258h22.365v-48.274l-17.008 16.98c-2.92 2.948-7.653 2.948-10.602 0-2.92-2.92-2.92-7.653 0-10.602l27.609-27.581v-17.772l-9.779 9.779c-2.92 2.92-7.682 2.92-10.602 0-2.948-2.92-2.948-7.682 0-10.602l20.381-20.381v-17.773l-2.579 2.579c-2.92 2.92-7.653 2.92-10.602 0-2.92-2.948-2.92-7.682 0-10.63l15.335-15.307c1.418-1.418 3.316-2.24 5.329-2.24 2.041 0 3.94.822 5.357 2.24l15.309 15.307c2.947 2.948 2.947 7.682 0 10.63-2.92 2.92-7.683 2.92-10.603 0l-2.552-2.579v17.773l20.383 20.381c2.919 2.92 2.919 7.682 0 10.602-2.948 2.92-7.683 2.92-10.603 0l-9.78-9.779v17.772l27.582 27.581c2.92 2.948 2.92 7.682 0 10.602-2.92 2.948-7.682 2.948-10.602 0l-16.98-16.98v48.529c13.749 1.275 26.165 7.427 35.435 16.696 10.46 10.46 16.951 24.916 16.951 40.818s-6.491 30.331-16.951 40.791c-10.46 10.488-24.917 16.979-40.82 16.979h-181.248c-4.139 0-7.483-3.373-7.483-7.512s3.345-7.483 7.483-7.483h181.249c11.764 0 22.452-4.819 30.219-12.586 7.738-7.738 12.558-18.426 12.558-30.189 0-11.764-4.819-22.45-12.558-30.217-9.156-9.128-19.646-12.558-32.345-12.558h-394.331c-11.735 0-22.451 4.819-30.19 12.558-7.767 7.767-12.586 18.453-12.586 30.217s4.819 22.451 12.586 30.189c7.739 7.767 18.455 12.586 30.19 12.586h181.249c4.139 0 7.512 3.345 7.512 7.483 0 4.139-3.373 7.512-7.512 7.512h-181.249c-15.902 0-30.332-6.491-40.792-16.979-10.488-10.459-16.979-24.888-16.979-40.79s6.491-30.358 16.979-40.818c9.27-9.27 21.657-15.421 35.435-16.696v-48.53l-17.009 16.98c-2.92 2.948-7.654 2.948-10.602 0-2.92-2.92-2.92-7.653 0-10.602l27.61-27.581v-17.772l-9.779 9.779c-2.921 2.92-7.684 2.92-10.603 0-2.948-2.92-2.948-7.682 0-10.602l20.382-20.381v-17.773l-2.58 2.579c-2.919 2.92-7.653 2.92-10.603 0-2.92-2.948-2.92-7.682 0-10.63l15.337-15.307c1.389-1.418 3.316-2.24 5.329-2.24s3.94.822 5.329 2.24l15.335 15.307c2.92 2.948 2.92 7.682 0 10.63-2.919 2.92-7.682 2.92-10.602 0l-2.551-2.579v17.773l20.381 20.381c2.92 2.92 2.92 7.682 0 10.602-2.948 2.92-7.682 2.92-10.63 0l-9.751-9.779v17.772l27.581 27.581c2.92 2.948 2.92 7.682 0 10.602-2.92 2.948-7.682 2.948-10.601 0l-16.979-16.98v48.274h22.365c39.062-61.966 78.096-123.902 117.157-185.84h-23.953c-4.139 0-7.512-3.345-7.512-7.512 0-4.139 3.373-7.483 7.512-7.483h33.423l33.278-52.781c2.211-3.515 6.804-4.563 10.318-2.353 1.021.652 1.813 1.475 2.409 2.438l33.223 52.696h46.801c6.321 0 12.104-2.607 16.271-6.803 4.195-4.167 6.803-9.95 6.803-16.27 0-6.35-2.607-12.104-6.803-16.3-4.167-4.195-9.949-6.774-16.271-6.774h-33.052c-4.111 0-7.456-3.316-7.484-7.428-.651-5.669-3.374-10.715-7.399-14.399-4.109-3.741-9.553-6.038-15.562-6.038h-19.418c-4.138 0-7.483-3.345-7.483-7.512 0-6.321-2.607-12.104-6.803-16.271-4.167-4.195-9.949-6.804-16.299-6.804h-28.632c-6.35 0-12.104 2.608-16.299 6.804-4.195 4.167-6.774 9.949-6.774 16.271 0 4.167-3.374 7.512-7.513 7.512h-9.211c-6.01 0-11.48 2.297-15.562 6.038-4.167 3.798-6.944 9.071-7.455 14.967-.34 3.855-3.571 6.86-7.455 6.86h-4.848c-6.35 0-12.104 2.579-16.3 6.774-4.195 4.195-6.774 9.95-6.774 16.3 0 6.32 2.579 12.104 6.774 16.27 4.195 4.195 9.95 6.803 16.3 6.803h23.811c4.139 0 7.512 3.345 7.512 7.483 0 4.167-3.373 7.512-7.512 7.512h-23.811c-10.488 0-20.013-4.28-26.901-11.168-6.888-6.917-11.169-16.441-11.169-26.9 0-10.488 4.281-20.014 11.169-26.901 6.604-6.605 15.619-10.828 25.568-11.169 1.956-6.944 5.812-13.096 11-17.857 6.803-6.208 15.816-10.007 25.653-10.007h2.466c1.503-7.483 5.216-14.201 10.432-19.417 6.889-6.889 16.412-11.169 26.9-11.169h28.632c10.487 0 20.012 4.28 26.9 11.169 5.216 5.216 8.929 11.934 10.432 19.417h12.671c9.836 0 18.851 3.799 25.626 10.007 5.188 4.733 9.071 10.885 11.026 17.83h26.845c10.46 0 19.983 4.279 26.9 11.196 6.888 6.888 11.169 16.413 11.169 26.901 0 10.459-4.281 19.983-11.169 26.9-6.917 6.888-16.441 11.168-26.9 11.168h-37.361c14.911 23.613 29.792 47.226 44.675 70.838 2.211 3.486 1.162 8.107-2.354 10.318-3.486 2.211-8.106 1.162-10.289-2.352l-23.357-37.021-32.005-9.043-19.615 26.59c-.454.623-1.02 1.189-1.673 1.7-3.316 2.438-7.993 1.758-10.46-1.56l-19.7-26.73-32.004 9.043-90.852 144.057h297.131zm-53.405-84.699-16.328-25.881c-.227-.312-.426-.623-.624-.963l-28.857-45.78-28.856 45.78c-.17.34-.398.651-.624.963l-16.328 25.881 21.006-5.896c3.203-.906 6.52.426 8.276 3.062l16.526 22.422 16.781-22.734c1.899-2.58 5.131-3.572 8.021-2.75z"/></g></svg>